<svg xmlns="http://www.w3.org/2000/svg" width="72" height="72" fill="none"><path fill="#4B5EFC" fill-rule="evenodd" d="M39 6v12h-6V6h6ZM6 33h12v6H6v-6Zm51 0h-3v6h12v-6h-9ZM39 54v12h-6V54h6Zm13.97 3.213 2.122 2.122 4.242-4.243-2.12-2.121-4.243-4.243-2.122-2.121-4.242 4.242 2.12 2.122 4.244 4.242Zm-31.82-31.82-2.12-2.12-4.243-4.243-2.122-2.122 4.243-4.242 2.121 2.12 4.243 4.244 2.121 2.12-4.242 4.244Zm36.063-6.364 2.121-2.121-4.242-4.243-2.121 2.122-4.243 4.242-2.121 2.122 4.242 4.242 2.122-2.121 4.242-4.243Zm-31.82 31.82-2.121 2.121-4.243 4.243-2.12 2.121-4.244-4.242 2.122-2.122 4.242-4.242 2.122-2.122 4.242 4.243ZM30 36a6 6 0 1 1 12 0 6 6 0 0 1-12 0Zm6-12c-6.627 0-12 5.373-12 12s5.373 12 12 12 12-5.373 12-12-5.373-12-12-12Z" clip-rule="evenodd" opacity=".7"/></svg>